# xmcd
#
# Track frame offsets:
#	150
#	25065
#	45128
#	64809
#	82541
#	104503
#	122000
#	142591
#	169504
#	187121
#
# Disc length: 2711 seconds
# Revision: 0
# Processed by: cddbd v1.5.2PL0 Copyright (c) Steve Scherf et al.
# Submitted via: dBpowerAMP V12.0
#
DISCID=6e0a950a
DTITLE=Orpheus - Bleed the Way
DYEAR=2011
DGENRE=Metal
TTITLE0=Neath (The Shadow of the Monolith)
TTITLE1=Winds of Change
TTITLE2=Unscathed
TTITLE3=Common Enemy
TTITLE4=Face of Vengeance
TTITLE5=Societies of Steel
TTITLE6=Sealed in Fate
TTITLE7=For All It's Worth
TTITLE8=A Thousand Times
TTITLE9=Grin of Madness
EXTD=
EXTT0=
EXTT1=
EXTT2=
EXTT3=
EXTT4=
EXTT5=
EXTT6=
EXTT7=
EXTT8=
EXTT9=
PLAYORDER=
